<svg width="92" height="24" viewBox="0 0 92 24" fill="none" xmlns="http://www.w3.org/2000/svg">
<rect x="0.5" y="0.5" width="23" height="23" rx="3.5" fill="white"/>
<rect x="0.5" y="0.5" width="23" height="23" rx="3.5" stroke="#E4E7EC"/>
<path d="M7.14645 12.3536C6.95118 12.1583 6.95118 11.8417 7.14645 11.6464L9.14645 9.64645C9.34171 9.45118 9.65829 9.45118 9.85355 9.64645C10.0488 9.84171 10.0488 10.1583 9.85355 10.3536L8.70711 11.5L16.5 11.5C16.7761 11.5 17 11.7239 17 12C17 12.2761 16.7761 12.5 16.5 12.5L8.70711 12.5L9.85355 13.6464C10.0488 13.8417 10.0488 14.1583 9.85355 14.3536C9.65829 14.5488 9.34171 14.5488 9.14645 14.3536L7.14645 12.3536Z" fill="black"/>
<path d="M37.134 16V6.2H40.942C41.9127 6.2 42.6733 6.41467 43.224 6.844C43.7747 7.264 44.05 7.84267 44.05 8.58C44.05 9.084 43.9053 9.518 43.616 9.882C43.336 10.2367 42.9767 10.5073 42.538 10.694C43.8167 11.1793 44.456 11.9773 44.456 13.088C44.456 13.9747 44.12 14.684 43.448 15.216C42.7853 15.7387 41.9687 16 40.998 16H37.134ZM38.646 11.464V14.684H40.844C42.2253 14.684 42.916 14.1473 42.916 13.074C42.916 12.0007 42.2253 11.464 40.844 11.464H38.646ZM38.646 7.516V10.148H40.83C42.006 10.148 42.594 9.70933 42.594 8.832C42.594 7.95467 42.006 7.516 40.83 7.516H38.646ZM52.0137 16H50.5857C50.3617 15.72 50.231 15.314 50.1937 14.782C49.7457 15.7247 48.9757 16.196 47.8837 16.196C47.1837 16.196 46.6144 16 46.1757 15.608C45.737 15.2067 45.5177 14.6887 45.5177 14.054C45.5177 13.3913 45.7417 12.878 46.1897 12.514C46.6377 12.1407 47.2304 11.8933 47.9677 11.772L50.1657 11.422V11.128C50.1657 10.3253 49.6804 9.924 48.7097 9.924C48.2337 9.924 47.8744 10.0127 47.6317 10.19C47.389 10.358 47.2677 10.5727 47.2677 10.834C47.2677 10.9273 47.277 10.9973 47.2957 11.044L46.0217 11.478C45.947 11.282 45.9097 11.0953 45.9097 10.918C45.9097 10.358 46.1664 9.87733 46.6797 9.476C47.193 9.06533 47.8697 8.86 48.7097 8.86C49.6524 8.86 50.3664 9.06067 50.8517 9.462C51.3464 9.86333 51.5937 10.4467 51.5937 11.212V14.264C51.5937 14.9733 51.7337 15.552 52.0137 16ZM48.1077 15.006C48.7237 15.006 49.2184 14.7867 49.5917 14.348C49.9744 13.9093 50.1657 13.3493 50.1657 12.668V12.472L48.2897 12.794C47.3937 12.9527 46.9457 13.3447 46.9457 13.97C46.9457 14.2873 47.0484 14.5393 47.2537 14.726C47.4684 14.9127 47.753 15.006 48.1077 15.006ZM58.7593 13.48L59.8653 14.194C59.1933 15.5287 58.1293 16.196 56.6733 16.196C55.6466 16.196 54.788 15.8553 54.0973 15.174C53.416 14.4833 53.0753 13.6013 53.0753 12.528C53.0753 11.4547 53.4253 10.5773 54.1253 9.896C54.8253 9.20533 55.6746 8.86 56.6733 8.86C57.4293 8.86 58.078 9.028 58.6193 9.364C59.1606 9.69067 59.5573 10.1527 59.8093 10.75L58.6753 11.506C58.2366 10.6193 57.574 10.176 56.6873 10.176C56.0713 10.176 55.558 10.3907 55.1473 10.82C54.7366 11.24 54.5313 11.8093 54.5313 12.528C54.5313 13.2467 54.732 13.8207 55.1333 14.25C55.5346 14.67 56.0526 14.88 56.6873 14.88C57.1913 14.88 57.602 14.7633 57.9193 14.53C58.2366 14.2967 58.5166 13.9467 58.7593 13.48ZM62.6482 6.2V11.394L65.0142 9.056H66.7642L64.3142 11.464L67.1842 16H65.5182L63.2922 12.472L62.6482 13.116V16H61.2202V6.2H62.6482Z" fill="white"/>
</svg>
