<svg width="31" height="31" viewBox="0 0 31 31" fill="none" xmlns="http://www.w3.org/2000/svg">
<rect width="31" height="31" rx="15.5" fill="#34C759"/>
<path d="M12.9578 18.125L20.0203 11.0625C20.187 10.8958 20.3814 10.8125 20.6037 10.8125C20.8259 10.8125 21.0203 10.8958 21.187 11.0625C21.3537 11.2292 21.437 11.4272 21.437 11.6567C21.437 11.8861 21.3537 12.0839 21.187 12.25L13.5412 19.9167C13.3745 20.0833 13.1801 20.1667 12.9578 20.1667C12.7356 20.1667 12.5412 20.0833 12.3745 19.9167L8.79117 16.3333C8.6245 16.1667 8.5445 15.9689 8.55117 15.74C8.55783 15.5111 8.64478 15.3131 8.812 15.1458C8.97922 14.9786 9.17728 14.8953 9.40617 14.8958C9.63505 14.8964 9.83283 14.9797 9.9995 15.1458L12.9578 18.125Z" fill="#E7F1F7" stroke="white"/>
</svg>
