<svg width="24" height="22" viewBox="0 0 24 22" fill="none" xmlns="http://www.w3.org/2000/svg">
<path fill-rule="evenodd" clip-rule="evenodd" d="M21.1 5.55092L21.13 5.57492C21.667 5.98792 22 6.62792 22 7.33192V18.5879C22.0016 19.0354 21.9148 19.4788 21.7447 19.8927C21.5745 20.3066 21.3243 20.6829 21.0084 20.9998C20.6926 21.3168 20.3172 21.5684 19.9039 21.74C19.4906 21.9116 19.0475 21.9999 18.6 21.9999H5.40002C4.95252 21.9999 4.50941 21.9116 4.09612 21.74C3.68283 21.5684 3.30748 21.3168 2.99161 20.9998C2.67573 20.6829 2.42554 20.3066 2.25538 19.8927C2.08522 19.4788 1.99844 19.0354 2.00002 18.5879V7.33192C2.00002 6.62792 2.33302 5.98792 2.87002 5.57492L2.89902 5.55192L10.689 0.419922C11.0641 0.147318 11.5159 0.000488281 11.9795 0.000488281C12.4432 0.000488281 12.895 0.147318 13.27 0.419922L21.1 5.55092ZM10 11.9999V19.9999H8.00002V11.7999C8.00002 10.8079 8.80802 9.99992 9.80002 9.99992H14.2C15.192 9.99992 16 10.8079 16 11.7999V19.9999H14V11.9999H10Z" fill="#E2E2E2"/>
</svg>
