<svg width="26" height="26" viewBox="0 0 26 26" fill="none" xmlns="http://www.w3.org/2000/svg">
<path d="M4.875 4.875H8.125V8.26312C7.69095 8.10924 7.22218 8.08147 6.773 8.18303C6.32381 8.28458 5.91259 8.51131 5.58695 8.83695C5.26131 9.16259 5.03458 9.57381 4.93303 10.023C4.83147 10.4722 4.85924 10.9409 5.01312 11.375H1.625V8.125C1.625 7.26305 1.96741 6.4364 2.5769 5.8269C3.1864 5.21741 4.01305 4.875 4.875 4.875ZM9.75 14.1489L11.6122 16.0128C11.7648 16.1653 11.9717 16.251 12.1875 16.251C12.4033 16.251 12.6102 16.1653 12.7628 16.0128C12.9153 15.8602 13.001 15.6533 13.001 15.4375C13.001 15.2217 12.9153 15.0148 12.7628 14.8622L10.8989 13H24.375V17.875C24.375 18.737 24.0326 19.5636 23.4231 20.1731C22.8136 20.7826 21.987 21.125 21.125 21.125H9.75V14.1489ZM6.97613 13L5.11225 14.8622C4.95968 15.0148 4.87397 15.2217 4.87397 15.4375C4.87397 15.6533 4.95968 15.8602 5.11225 16.0128C5.26482 16.1653 5.47174 16.251 5.6875 16.251C5.90326 16.251 6.11018 16.1653 6.26275 16.0128L8.125 14.1489V21.125H4.875C4.01305 21.125 3.1864 20.7826 2.5769 20.1731C1.96741 19.5636 1.625 18.737 1.625 17.875V13H6.97613ZM12.8619 11.375C12.9529 11.1193 12.9989 10.8485 13 10.5625C13.0002 10.1724 12.9068 9.78803 12.7276 9.44155C12.5484 9.09508 12.2887 8.79667 11.9703 8.57138C11.6519 8.3461 11.284 8.20052 10.8977 8.14688C10.5113 8.09324 10.1178 8.1331 9.75 8.26312V4.875H21.125C21.987 4.875 22.8136 5.21741 23.4231 5.8269C24.0326 6.4364 24.375 7.26305 24.375 8.125V11.375H12.8619ZM9.75 10.5625V11.375H10.5625C10.7232 11.375 10.8803 11.3273 11.0139 11.2381C11.1475 11.1488 11.2517 11.0219 11.3132 10.8734C11.3746 10.725 11.3907 10.5616 11.3594 10.404C11.328 10.2464 11.2507 10.1016 11.137 9.98798C11.0234 9.87435 10.8786 9.79696 10.721 9.76561C10.5634 9.73426 10.4 9.75035 10.2516 9.81185C10.1031 9.87334 9.97621 9.97748 9.88693 10.1111C9.79765 10.2447 9.75 10.4018 9.75 10.5625ZM8.125 10.5625V11.375H7.3125C7.1518 11.375 6.99471 11.3273 6.8611 11.2381C6.72748 11.1488 6.62334 11.0219 6.56185 10.8734C6.50035 10.725 6.48426 10.5616 6.51561 10.404C6.54696 10.2464 6.62435 10.1016 6.73798 9.98798C6.85161 9.87435 6.99638 9.79696 7.15399 9.76561C7.3116 9.73426 7.47497 9.75035 7.62343 9.81185C7.7719 9.87334 7.89879 9.97748 7.98807 10.1111C8.07735 10.2447 8.125 10.4018 8.125 10.5625Z" fill="#E2E2E2"/>
</svg>
