<svg width="28" height="28" viewBox="0 0 28 28" fill="none" xmlns="http://www.w3.org/2000/svg">
<path fill-rule="evenodd" clip-rule="evenodd" d="M10.4998 3.76015C10.4998 3.49592 10.5894 3.23949 10.7541 3.03284C10.9188 2.8262 11.1487 2.68158 11.4063 2.62265C13.1132 2.23437 14.8856 2.23517 16.5921 2.62499C16.8499 2.68368 17.0802 2.8282 17.2451 3.03487C17.41 3.24154 17.4998 3.49809 17.4998 3.76249V5.91732C17.4998 6.12211 17.5537 6.32329 17.6561 6.50064C17.7585 6.67799 17.9058 6.82527 18.0831 6.92766C18.2605 7.03005 18.4617 7.08396 18.6665 7.08396C18.8713 7.08396 19.0724 7.03005 19.2498 6.92765L21.1176 5.84849C21.3468 5.71621 21.6141 5.66576 21.8757 5.7054C22.1373 5.74504 22.3776 5.87243 22.5573 6.06665C23.7435 7.35222 24.6287 8.88576 25.1485 10.556C25.2268 10.8087 25.2169 11.0805 25.1205 11.3268C25.024 11.5731 24.8467 11.7793 24.6176 11.9117L22.7498 12.9897C22.5725 13.0921 22.4252 13.2393 22.3228 13.4167C22.2204 13.594 22.1665 13.7952 22.1665 14C22.1665 14.2048 22.2204 14.4059 22.3228 14.5833C22.4252 14.7606 22.5725 14.9079 22.7498 15.0103L24.6165 16.0872C24.8453 16.2194 25.0224 16.4255 25.1189 16.6715C25.2153 16.9176 25.2253 17.1891 25.1473 17.4417C24.632 19.1146 23.7468 20.6502 22.5573 21.9345C22.3775 22.1285 22.1371 22.2557 21.8755 22.2951C21.6139 22.3345 21.3467 22.2839 21.1176 22.1515L19.2498 21.0723C19.0724 20.9699 18.8713 20.916 18.6665 20.916C18.4617 20.916 18.2605 20.9699 18.0831 21.0723C17.9058 21.1747 17.7585 21.322 17.6561 21.4993C17.5537 21.6767 17.4998 21.8779 17.4998 22.0827V24.241C17.4995 24.5052 17.4096 24.7615 17.2447 24.9679C17.0798 25.1743 16.8497 25.3187 16.5921 25.3773C14.8852 25.7656 13.1128 25.7648 11.4063 25.375C11.1487 25.3161 10.9188 25.1714 10.7541 24.9648C10.5894 24.7582 10.4998 24.5017 10.4998 24.2375V22.0827C10.4998 21.8779 10.4459 21.6767 10.3435 21.4993C10.2411 21.322 10.0938 21.1747 9.91645 21.0723C9.7391 20.9699 9.53792 20.916 9.33313 20.916C9.12834 20.916 8.92715 20.9699 8.7498 21.0723L6.88197 22.1515C6.65282 22.2838 6.38552 22.3342 6.12392 22.2946C5.86232 22.2549 5.62197 22.1275 5.4423 21.9333C4.85017 21.2933 4.33165 20.5889 3.89647 19.8333C3.45982 19.0784 3.10918 18.277 2.85113 17.444C2.77281 17.1913 2.78269 16.9195 2.87914 16.6732C2.97559 16.4269 3.1529 16.2206 3.38197 16.0883L5.24863 15.0103C5.42598 14.9079 5.57324 14.7606 5.67563 14.5833C5.77801 14.4059 5.83192 14.2048 5.83192 14C5.83192 13.7952 5.77801 13.594 5.67563 13.4167C5.57324 13.2393 5.42598 13.0921 5.24863 12.9897L3.3843 11.9128C3.15527 11.7807 2.97789 11.5748 2.88123 11.3287C2.78458 11.0826 2.77438 10.811 2.8523 10.5583C3.3678 8.88578 4.25299 7.35065 5.4423 6.06665C5.6219 5.87271 5.86203 5.7455 6.12338 5.70586C6.38472 5.66623 6.65177 5.71651 6.8808 5.84849L8.7498 6.92765C8.92715 7.03005 9.12834 7.08396 9.33313 7.08396C9.53792 7.08396 9.7391 7.03005 9.91645 6.92766C10.0938 6.82527 10.2411 6.67799 10.3435 6.50064C10.4459 6.32329 10.4998 6.12211 10.4998 5.91732V3.76015ZM13.9998 17.5C14.9281 17.5 15.8183 17.1312 16.4747 16.4749C17.1311 15.8185 17.4998 14.9282 17.4998 14C17.4998 13.0717 17.1311 12.1815 16.4747 11.5251C15.8183 10.8687 14.9281 10.5 13.9998 10.5C13.0715 10.5 12.1813 10.8687 11.5249 11.5251C10.8685 12.1815 10.4998 13.0717 10.4998 14C10.4998 14.9282 10.8685 15.8185 11.5249 16.4749C12.1813 17.1312 13.0715 17.5 13.9998 17.5Z" fill="#E2E2E2"/>
</svg>
