<svg width="72" height="86" viewBox="0 0 72 86" fill="none" xmlns="http://www.w3.org/2000/svg">
<path d="M36.1253 0.0590363C27.1122 7.12975 14.6255 12.6853 0.894721 15.713L0.759308 41.6156C0.69721 53.4675 6.20431 64.1901 17.1276 73.4856C24.305 79.5928 31.8514 83.382 35.6803 85.0836C35.8451 85.0137 36.026 84.9308 36.2038 84.8531V0.118576C36.1777 0.100449 36.1505 0.0797577 36.1253 0.0590363Z" fill="#3778D9" fill-opacity="0.5"/>
<path d="M36.2627 0.0583496V85.1919C40.2437 83.412 47.4793 79.7351 54.4089 73.914C65.4262 64.6579 71.0441 53.9291 71.1056 42.0214L71.2413 15.9968C57.5846 12.8586 45.193 7.20139 36.2627 0.0583496Z" fill="#3778D9" fill-opacity="0.5"/>
<path d="M36.4818 0C23.1433 5.80691 16.2546 7.90355 3.41748 10.8668L3.41748 40.6717C3.35942 52.2712 8.50811 62.7654 18.7205 71.863C25.4308 77.8402 32.486 81.5487 36.0657 83.2141C36.2198 83.1456 36.3889 83.0645 36.5551 82.9885V0.0582657C36.5308 0.0405273 36.5053 0.0202789 36.4818 0Z" fill="#296ACC"/>
<path d="M36.5557 0.0582733V82.9885C40.2784 81.2546 47.0445 77.6729 53.5245 72.0024C63.827 62.986 69.0805 52.5348 69.138 40.9353V9.98673C56.1429 7.3468 42.6132 2.83691 36.5557 0.0582733Z" fill="#2E77E6"/>
<path fill-rule="evenodd" clip-rule="evenodd" d="M25.9522 37.6297V33.3894C25.9522 30.5779 27.0691 27.8815 29.0571 25.8935C31.0452 23.9054 33.7415 22.7886 36.553 22.7886C39.3645 22.7886 42.0609 23.9054 44.0489 25.8935C46.037 27.8815 47.1538 30.5779 47.1538 33.3894V37.6297C48.2784 37.6297 49.357 38.0764 50.1522 38.8716C50.9474 39.6669 51.3941 40.7454 51.3941 41.87V52.4708C51.3941 53.5954 50.9474 54.6739 50.1522 55.4692C49.357 56.2644 48.2784 56.7111 47.1538 56.7111H25.9522C24.8276 56.7111 23.7491 56.2644 22.9539 55.4692C22.1587 54.6739 21.7119 53.5954 21.7119 52.4708V41.87C21.7119 40.7454 22.1587 39.6669 22.9539 38.8716C23.7491 38.0764 24.8276 37.6297 25.9522 37.6297ZM42.9135 33.3894V37.6297H30.1926V33.3894C30.1926 31.7025 30.8627 30.0847 32.0555 28.8918C33.2483 27.699 34.8661 27.0289 36.553 27.0289C38.2399 27.0289 39.8577 27.699 41.0506 28.8918C42.2434 30.0847 42.9135 31.7025 42.9135 33.3894Z" fill="white"/>
</svg>
