<svg width="28" height="28" viewBox="0 0 28 28" fill="none" xmlns="http://www.w3.org/2000/svg">
<path d="M21.1189 3.2129C23.5684 3.2129 24.7869 4.4314 24.7869 6.8454V21.1549C24.7869 23.5689 23.5684 24.7874 21.1189 24.7874H6.8924C4.4549 24.7874 3.2124 23.5804 3.2124 21.1549V6.8449C3.2124 4.4194 4.4549 3.2124 6.8924 3.2124L21.1189 3.2129ZM9.9999 10.9999H8.9999C8.73469 10.9999 8.48033 11.1053 8.2928 11.2928C8.10526 11.4803 7.9999 11.7347 7.9999 11.9999V18.9999C7.9999 19.2651 8.10526 19.5195 8.2928 19.707C8.48033 19.8945 8.73469 19.9999 8.9999 19.9999H9.9999C10.2651 19.9999 10.5195 19.8945 10.707 19.707C10.8945 19.5195 10.9999 19.2651 10.9999 18.9999V11.9999C10.9999 11.7347 10.8945 11.4803 10.707 11.2928C10.5195 11.1053 10.2651 10.9999 9.9999 10.9999ZM14.4999 7.9999H13.4999C13.2347 7.9999 12.9803 8.10526 12.7928 8.2928C12.6053 8.48033 12.4999 8.73469 12.4999 8.9999V18.9999C12.4999 19.2651 12.6053 19.5195 12.7928 19.707C12.9803 19.8945 13.2347 19.9999 13.4999 19.9999H14.4999C14.7651 19.9999 15.0195 19.8945 15.207 19.707C15.3945 19.5195 15.4999 19.2651 15.4999 18.9999V8.9999C15.4999 8.73469 15.3945 8.48033 15.207 8.2928C15.0195 8.10526 14.7651 7.9999 14.4999 7.9999ZM18.9999 13.9999H17.9999C17.7347 13.9999 17.4803 14.1053 17.2928 14.2928C17.1053 14.4803 16.9999 14.7347 16.9999 14.9999V18.9999C16.9999 19.2651 17.1053 19.5195 17.2928 19.707C17.4803 19.8945 17.7347 19.9999 17.9999 19.9999H18.9999C19.2651 19.9999 19.5195 19.8945 19.707 19.707C19.8945 19.5195 19.9999 19.2651 19.9999 18.9999V14.9999C19.9999 14.7347 19.8945 14.4803 19.707 14.2928C19.5195 14.1053 19.2651 13.9999 18.9999 13.9999Z" fill="#E2E2E2"/>
</svg>
